<svg xmlns="http://www.w3.org/2000/svg" viewBox="0 0 160 120">
  <defs>
    <linearGradient id="g1" x1="0%" y1="0%" x2="100%" y2="100%">
      <stop offset="0%" stop-color="#0ea5e9"/>
      <stop offset="100%" stop-color="#a855f7"/>
    </linearGradient>
  </defs>
  <rect width="160" height="120" rx="18" fill="url(#g1)" opacity="0.18"/>
  <rect x="8" y="8" width="144" height="104" rx="16" fill="#ffffff"/>
  <path d="M80 36c-16 0-30 12-30 30 0 12 8 24 18 28v6c0 4 3 7 7 7h10c4 0 7-3 7-7v-6c10-4 18-16 18-28 0-18-14-30-30-30zm-18 30c0-10 8-18 18-18s18 8 18 18-8 18-18 18-18-8-18-18z" fill="#0ea5e9" opacity="0.72"/>
  <path d="M64 68a16 16 0 0 0 32 0" fill="none" stroke="#a855f7" stroke-width="4" stroke-linecap="round" stroke-linejoin="round"/>
</svg>
